<?xml version="1.0" encoding="utf-8"?>
<!-- Generator: Adobe Illustrator 25.2.3, SVG Export Plug-In . SVG Version: 6.00 Build 0)  -->
<svg version="1.1" id="Layer_1" xmlns="http://www.w3.org/2000/svg" xmlns:xlink="http://www.w3.org/1999/xlink" x="0px" y="0px"
	 viewBox="0 0 1080 1080" style="enable-background:new 0 0 1080 1080;" xml:space="preserve">
<style type="text/css">
	.st0{fill:#01288F;}
	.st1{fill:#FFFFFF;}
	.st2{fill:#DCDCDC;}
	.st3{fill:#247EAB;}
	.st4{fill:#7F7E7E;}
	.st5{fill:#F2B90F;}
	.st6{fill:#22BDF4;}
</style>
<g id="Group_4195" transform="translate(-2916.269 59.174)">
	<g id="Group_4154" transform="translate(2138.439 -600.988)">
		<g id="Group_2">
			<g id="Group_1">
				<g id="Group_4149">
					<g id="Path_1-2">
						<path class="st0" d="M1328.15,1539.6h-20.58c-2.95-1.1-5.87-2.28-8.85-3.3c-98.71-33.54-186.29-93.56-253.2-173.51
							c-39.28-44.99-68.58-97.8-85.96-154.94c-22.29-80.27-33.9-163.12-34.54-246.42c-1.09-64.27,1.74-128.55,8.46-192.48
							c3.02-31.58,7.72-37.65,35.25-45.64c111.3-32.3,222.59-64.64,333.89-97.01c9.87-3.01,20.41-3.01,30.29,0
							c35.93,10.68,71.98,20.98,108,31.43c77.79,22.57,155.58,45.12,233.37,67.64c14.48,3.18,25.13,15.52,26.15,30.31
							c6.09,49.62,8.78,99.53,10.11,149.47c1.03,45.23-0.47,90.48-4.51,135.54c-3.44,42.64-9.92,84.99-19.39,126.71
							c-9.44,46.52-26.56,91.14-50.64,132.04c-50.85,81.46-121.54,148.69-205.45,195.38
							C1397.88,1512.87,1363.6,1527.87,1328.15,1539.6z"/>
						<path class="st1" d="M1329.83,1550.03l-25.9-0.65l-3-1.14c-1.85-0.72-3.7-1.43-5.58-2.07
							c-100.51-34.17-189.67-95.26-257.82-176.68c-40.37-46.25-70.01-99.67-87.94-158.6c-22.6-81.38-34.35-165.2-35-249.37
							c-1.09-64.35,1.77-129.53,8.51-193.66c3.42-35.65,11-45.36,42.72-54.57c111.3-32.3,222.59-64.64,333.89-97.01
							c11.76-3.59,24.34-3.57,36.23,0.03c26.04,7.74,52.18,15.3,78.35,22.85l29.52,8.55c77.79,22.57,155.57,45.12,233.38,67.64
							c18.21,3.97,32.32,20.34,33.65,39.62c5.33,43.3,8.56,91.11,10.14,149.91c1.03,45.46-0.5,91.46-4.55,136.75
							c-3.45,42.89-10.05,86.02-19.6,128.09c-9.65,47.51-27.09,93.01-51.82,135.02c-51.8,83-124.16,151.79-209.38,199.2
							c-33.14,18.33-68.19,33.67-104.2,45.58L1329.83,1550.03z M1309.49,1529.17h16.97c34.22-11.44,67.54-26.07,99.04-43.49
							c82.13-45.68,151.86-112,201.67-191.78c23.39-39.77,40.02-83.1,49.25-128.58c9.39-41.34,15.83-83.48,19.21-125.47
							c3.99-44.62,5.5-89.82,4.48-134.47c-1.55-58.07-4.73-105.25-10.03-148.43c-0.75-10.65-8.15-19.22-18.04-21.4
							c-78.47-22.69-156.25-45.23-234.04-67.81l-29.51-8.53c-26.21-7.57-52.4-15.14-78.55-22.92c-8-2.43-16.35-2.43-24.28-0.01
							c-111.42,32.4-222.72,64.74-334.01,97.04c-22.49,6.54-25.06,8.21-27.78,36.62c-6.66,63.38-9.49,127.71-8.41,191.32
							c0.63,82.45,12.13,164.44,34.16,243.8c17,55.85,45.21,106.69,83.77,150.87c65.83,78.66,151.78,137.56,248.69,170.49
							c2.14,0.73,4.23,1.52,6.32,2.32L1309.49,1529.17z"/>
					</g>
				</g>
			</g>
		</g>
		<g id="Path_211">
			<path class="st2" d="M1527.91,1026.15c-1.48,0.85-3.28,0.95-4.86,0.28c-18.78-5.2-38.35-6.9-57.75-5.01
				c-1.67,0.14-3.33,0.28-4.44-1.39c0.28-1.53,1.53-2.36,2.5-3.62c2.46-2.59,2.4-6.67-0.14-9.18c-0.96-0.83-2.1-1.4-3.34-1.67
				c-2.09-0.53-4.25-0.72-6.4-0.56h-241.23c-1.82-0.14-3.65,0-5.43,0.42c-3.57,0.58-6,3.94-5.43,7.51c0.45,2.79,2.64,4.98,5.43,5.43
				c2.43,0.42,4.91,0.56,7.37,0.42h234.41c2.97-0.21,5.95-0.07,8.89,0.42c2.52,1.11,2.38,2.23-0.12,3.06
				c-2.7,0.75-5.44,1.35-8.21,1.81c-24.85,5.43-47.86,17.22-66.78,34.22c-5.66,5.29-11.05,10.86-16.15,16.69
				c-1.3,1.72-3.18,2.9-5.29,3.34c-2.81,0.37-5.65,0.46-8.47,0.28h-138.84c-2.51-0.14-5.03,0-7.51,0.42
				c-2.93,0.37-5.1,2.9-5.01,5.84c-0.16,2.98,1.93,5.61,4.87,6.12c2.47,0.49,5,0.63,7.51,0.42h128.39c2.79-0.16,5.6,0.03,8.35,0.56
				c3.2,1.81,1.39,4.03,0.26,5.84c-5.96,10.95-10.58,22.58-13.76,34.64c-0.83,3.06-1.39,6.12-1.95,9.18
				c-1.11,3.2,0.12,7.37-3.9,9.32c-2.61,0.49-5.28,0.63-7.93,0.42h-108.94c-2.47-0.17-4.95,0.02-7.36,0.56
				c-3.45,0.44-5.89,3.6-5.45,7.05c0.01,0.06,0.02,0.12,0.03,0.18c0.4,2.71,2.46,4.88,5.15,5.43c2.74,0.58,5.55,0.81,8.35,0.7
				h106.56c2.6-0.28,5.23-0.14,7.79,0.42c0.63,0.19,1.2,0.52,1.67,0.97c2.09,4.17,0.14,8.76,1.52,12.94
				c0.73,11.01,2.6,21.92,5.57,32.55c0.55,1.42,0.69,2.96,0.42,4.45l1.11,5.98c-2.39,1.54-5.28,2.08-8.07,1.53h-115.89
				c-2.84-0.17-5.69,0.02-8.49,0.56c-3.54,0.34-6.18,3.41-6,6.96c0.2,3.52,3.17,6.23,6.69,6.12c2.31,0.19,4.64,0.23,6.96,0.14
				h123.95c3.04-0.39,6.13,0.25,8.76,1.81c9.71,18.12,22.84,34.19,38.68,47.3c0.82,0.82,1.56,1.7,2.23,2.64l16.14,10.85H1155.2
				c-10.06-0.17-18.35-7.92-19.2-17.95c-1.53-1.53-0.83-3.48-0.83-5.29c0-57.6-0.97-115.19,0.14-172.79
				c0.42-19.48,2.36-50.92,1.95-87.78c-0.42-34.08-0.57-51.06-0.97-54.53c-1.28-10.48-1.51-21.06-0.7-31.58h-0.83v-54.4
				c0.03-33.3,27.05-60.27,60.35-60.24c0.01,0,0.02,0,0.03,0h239.13v54.4c0,10.29,18.2,12.16,13.61,20.63
				c3.48,0-14.3,7.33-13.61,2.78c3.34,1.25,2.92,5.29,5.57,7.23c7.22,6.67,17.28,9.33,26.85,7.1c5.08-0.58,10.19-0.81,15.3-0.7
				c12.1,0.56,24.19-1.25,36.31-0.97c2.23,0,4.73-0.42,6.54,1.53c2.34,5.09,3.35,10.69,2.92,16.28
				C1527.91,958.26,1527.79,992.21,1527.91,1026.15z"/>
		</g>
		<g id="Path_212">
			<path class="st3" d="M1525.01,907.76c-21.84,0.7-43.68,1.25-65.39,1.81c-8.25,1.3-16.53-2.14-21.42-8.9
				c-2.38-1.81-2.5-4.87-4.03-7.1v-77.49c1.25-0.56,1.66,0.28,2.23,0.83c19.06,18.92,37.98,37.98,57.04,57.04
				c0.54,0.56,0.97,1.22,1.25,1.95h0.14c9.74,9.46,19.48,18.92,29.21,28.66C1524.59,905.12,1527.79,905.95,1525.01,907.76z"/>
		</g>
		<g id="Path_8">
			<path class="st4" d="M1347.32,1239.67h-138.9c-4.66,0.51-8.85-2.85-9.36-7.51c0-0.01,0-0.01,0-0.02v-0.08
				c-0.14-4.71,3.42-8.7,8.11-9.11c1.48-0.15,2.98-0.19,4.47-0.12h127.99L1347.32,1239.67z"/>
		</g>
		<g id="Path_9">
			<path class="st4" d="M1461.16,1020.27l-1.95,0.08l-170.85-0.11h-79.7c-4.57,0.59-8.75-2.65-9.34-7.22
				c-0.2-1.6,0.06-3.22,0.76-4.67c1.18-2.64,3.69-4.44,6.57-4.73c1.65-0.14,3.31-0.19,4.97-0.14h244.58
				c4.56-0.08,8.78,0.72,10.57,5.57C1468.44,1013.59,1466.69,1016.77,1461.16,1020.27z"/>
		</g>
		<g id="Path_10">
			<path class="st4" d="M1295.14,930.6h83.69c1.49-0.05,2.99-0.03,4.48,0.07c4.18,0.39,7.28,4.06,6.96,8.25
				c0.2,4.05-2.9,7.51-6.96,7.75c-0.83,0.08-1.66,0.11-2.49,0.08h-171.84c-2.66,0.46-5.39-0.37-7.35-2.24
				c-2.36-2.25-3.09-5.71-1.85-8.72c1.03-3.09,3.91-5.18,7.16-5.19H1295.14z"/>
		</g>
		<g id="Path_11">
			<path class="st4" d="M1362.54,1077.11l-11.13,16.21l-140.34-0.11c-8.01,0-11.81-2.56-11.92-8c-0.11-5.44,3.63-8.21,11.66-8.21
				L1362.54,1077.11z"/>
		</g>
		<g id="Path_12">
			<path class="st4" d="M1331.66,1150.01c-0.44,5.57-0.86,11.13-1.28,16.69h-120.43c-4.43,0.72-8.74-1.81-10.28-6.02
				c-1.29-3.38-0.04-7.2,3.01-9.15c1.59-1.22,3.57-1.82,5.57-1.7C1249.35,1149.95,1290.49,1150.01,1331.66,1150.01z"/>
		</g>
		<g id="Group_4153">
			<g id="Group_4150">
				<g id="Path_2-2">
					<path class="st5" d="M1479.33,1345.61l102.31,186.42l19.48-100.61l84.74,42.56l-100.36-191.15L1479.33,1345.61z"/>
				</g>
			</g>
			<g id="Group_4151">
				<g id="Path_3-2">
					<path class="st5" d="M1467.49,1345.61l-102.31,186.42l-19.48-100.61l-84.74,42.56l100.36-191.15L1467.49,1345.61z"/>
				</g>
			</g>
			<g id="Group_4152">
				<g id="Ellipse_1-2">
					<circle class="st6" cx="1473.93" cy="1173.41" r="176.29"/>
				</g>
			</g>
			<g id="Group_3">
				<g id="Path_14">
					<path class="st1" d="M1421.21,1275.02c-19.01-1.22-35.56-13.42-42.36-31.22c-8.85-18.72-5.09-40.96,9.4-55.75
						c8.9-9.95,18.73-19.09,28.27-28.45c4.97-5.42,13.39-5.79,18.81-0.82l0.42,0.39c5.19,5.09,5.27,13.42,0.19,18.61
						c-0.21,0.21-0.42,0.42-0.64,0.61c-8.89,9.07-18.09,17.89-26.88,27c-9.87,9.89-9.85,25.9,0.04,35.77
						c3.62,3.61,8.25,6.04,13.29,6.97c8.41,1.69,17.09-1.12,22.9-7.43c8.93-8.83,17.74-17.79,26.7-26.6
						c3.93-4.42,10.38-5.58,15.59-2.78c4.88,2.39,7.78,7.55,7.28,12.97c-0.29,3.28-1.78,6.33-4.17,8.58
						c-9.54,9.57-18.88,19.34-28.74,28.56C1450.38,1271.3,1435.87,1276.22,1421.21,1275.02z"/>
				</g>
				<g id="Path_15">
					<path class="st1" d="M1532.67,1071.82c18.43,1.66,34.29,13.72,40.8,31.04c8.89,18.71,5.19,40.98-9.28,55.81
						c-8.68,9.74-18.34,18.71-27.7,27.82c-4.96,5.38-13.34,5.72-18.71,0.76c0,0-0.01-0.01-0.01-0.01c-0.18-0.16-0.34-0.32-0.5-0.5
						c-5.16-5-5.28-13.24-0.28-18.39c0.26-0.26,0.53-0.51,0.82-0.77c8.63-8.75,17.39-17.36,26.04-26.1
						c7.65-6.96,10.15-17.95,6.25-27.53c-3.31-9.68-12.39-16.2-22.62-16.26c-7.28-0.38-14.35,2.5-19.3,7.86
						c-8.88,8.9-17.76,17.78-26.66,26.63c-3.57,3.94-9.21,5.26-14.16,3.31c-6.9-2.51-10.46-10.12-7.97-17.03
						c0.66-1.82,1.71-3.48,3.07-4.86c9.53-9.59,18.85-19.37,28.74-28.56C1502.57,1075.03,1517.61,1070.24,1532.67,1071.82z"/>
				</g>
				<g id="Path_16">
					<path class="st1" d="M1444.64,1218.25c-4.71,0.13-9.11-2.35-11.44-6.45c-2.65-4.09-2.65-9.36,0-13.45
						c1.25-1.93,2.72-3.7,4.38-5.27c19.64-19.7,39.31-39.38,59.01-59.04c7.35-7.33,14.98-8.15,21.02-2.31
						c6.04,5.84,5.41,13.77-2.1,21.31c-19.84,19.91-39.7,39.78-59.58,59.61C1453.14,1216.03,1449.03,1218.07,1444.64,1218.25z"/>
				</g>
			</g>
		</g>
	</g>
</g>
</svg>
